<svg xmlns="http://www.w3.org/2000/svg" viewBox="0 0 1200 520"><defs><linearGradient id="g" x1="0" y1="0" x2="1" y2="1"><stop stop-color="#174d3d"/><stop offset="1" stop-color="#286b54"/></linearGradient><radialGradient id="m"><stop stop-color="#f4d99a"/><stop offset="1" stop-color="#b58a3a"/></radialGradient></defs><rect width="1200" height="520" fill="url(#g)"/><circle cx="930" cy="110" r="70" fill="url(#m)" opacity=".9"/><path d="M0 330 Q160 260 330 340 T700 320 T1200 300 V520H0Z" fill="#102f28" opacity=".75"/><path d="M180 380 Q390 315 620 385 Q430 435 180 380Z" fill="#8b6a3b"/><path d="M390 340 L430 265 L470 340Z" fill="#f7f5ef"/><path d="M450 265 L510 315" stroke="#f7f5ef" stroke-width="7"/><path d="M0 410 Q160 360 310 415 T620 405 T900 390 T1200 415" fill="none" stroke="#d7e5df" stroke-width="5" opacity=".6"/><circle cx="160" cy="100" r="4" fill="#fff"/><circle cx="230" cy="70" r="3" fill="#fff"/><circle cx="320" cy="125" r="4" fill="#fff"/></svg>